<?xml version="1.0" standalone="no"?>
<!DOCTYPE svg PUBLIC "-//W3C//DTD SVG 20010904//EN"
 "http://www.w3.org/TR/2001/REC-SVG-20010904/DTD/svg10.dtd">
<svg version="1.0" xmlns="http://www.w3.org/2000/svg"
 width="718.000000pt" height="797.000000pt" viewBox="0 0 718.000000 797.000000"
 preserveAspectRatio="xMidYMid meet">

<g transform="translate(0.000000,797.000000) scale(0.100000,-0.100000)"
fill="#000000" stroke="none">
<path d="M3430 7154 c-19 -2 -73 -9 -120 -15 -353 -43 -770 -203 -1060 -407
-344 -242 -624 -569 -809 -946 -175 -357 -255 -698 -256 -1094 0 -184 2 -204
18 -213 63 -36 191 -145 251 -216 80 -94 168 -233 194 -305 15 -42 20 -48 37
-42 11 4 112 9 223 11 186 4 203 6 197 21 -28 72 -137 390 -146 426 -13 52
-26 57 -58 22 -66 -70 -212 -90 -312 -44 -30 14 -65 34 -79 45 l-24 20 29 27
c17 14 58 40 92 57 53 27 73 31 135 31 42 0 92 -7 117 -16 24 -9 46 -14 48
-12 4 4 -87 237 -108 278 -8 15 -12 15 -46 -3 -79 -40 -159 -33 -225 21 -30
25 -98 133 -98 155 0 4 46 5 103 2 73 -4 117 -11 155 -28 29 -12 56 -19 60
-15 9 9 -42 102 -95 173 -24 32 -51 77 -59 100 -30 78 -6 216 49 288 15 19 15
19 36 -5 11 -14 37 -56 56 -94 46 -89 48 -169 9 -256 l-26 -57 33 -64 32 -64
13 61 c23 114 80 192 182 247 l50 27 7 -66 c16 -144 -17 -232 -108 -284 -29
-17 -67 -30 -85 -30 -40 0 -42 11 36 -179 l56 -136 12 41 c15 53 47 114 78
151 24 29 132 85 190 99 l29 7 -6 -69 c-8 -87 -29 -150 -67 -196 -33 -39 -138
-98 -177 -98 -12 0 -23 -4 -23 -9 0 -16 207 -531 224 -556 16 -24 20 -25 141
-25 90 0 125 3 125 12 0 15 -75 142 -112 191 -17 20 -26 37 -22 37 9 0 84 -61
146 -118 l47 -44 -19 68 c-33 119 -69 215 -101 273 l-31 56 27 -25 c15 -14 78
-92 140 -175 120 -159 230 -284 221 -250 -2 11 -20 58 -40 105 -46 112 -67
218 -72 365 l-4 120 20 -65 c11 -35 38 -102 59 -147 44 -90 129 -228 137 -220
3 2 -7 44 -22 93 -36 119 -40 313 -9 444 l20 85 6 -110 c8 -124 27 -210 69
-301 28 -63 109 -189 116 -182 2 3 -5 65 -15 139 -11 74 -22 163 -25 199 l-7
65 47 -85 c49 -92 152 -240 171 -247 6 -3 56 3 111 11 55 9 105 16 112 16 7 0
-26 -40 -72 -89 -67 -70 -95 -109 -131 -183 -51 -103 -83 -209 -93 -304 -6
-59 -5 -64 20 -87 14 -13 26 -34 26 -46 0 -36 43 -71 88 -71 42 0 67 20 95 75
l15 30 6 -45 c6 -50 16 -480 11 -480 -2 0 -30 44 -63 98 -86 140 -144 214
-223 285 -98 87 -108 89 -46 9 48 -63 145 -232 133 -232 -3 0 -45 26 -93 57
-48 32 -127 74 -176 95 -142 62 -219 81 -522 133 -41 7 -21 -8 40 -30 126 -45
452 -228 640 -360 171 -120 328 -272 439 -429 25 -35 46 -67 46 -70 0 -4 -35
23 -77 60 -110 96 -259 190 -447 282 -188 93 -325 146 -445 172 -122 27 -303
43 -391 35 -120 -11 -420 -69 -408 -79 1 -2 68 0 148 3 179 9 523 -3 679 -24
222 -29 383 -88 516 -188 75 -57 135 -111 115 -103 -8 3 -64 25 -125 50 -118
48 -294 104 -415 131 -97 22 -493 32 -640 16 -104 -11 -373 -66 -400 -81 -8
-5 79 -6 195 -3 637 17 1123 -95 1460 -336 39 -27 84 -61 100 -76 30 -26 30
-26 -25 3 -131 72 -384 162 -565 201 -228 50 -405 62 -972 70 l-493 6 59 115
c56 109 443 832 468 875 11 19 22 20 260 19 136 -1 279 -6 318 -12 130 -21 94
-1 -105 55 l-125 36 -270 4 -270 4 -28 -50 c-16 -28 -32 -51 -36 -51 -5 0 -25
39 -46 88 -67 156 -135 278 -193 348 -55 65 -202 194 -222 194 -28 0 6 -266
46 -362 73 -174 182 -280 301 -294 101 -11 109 -18 73 -54 -17 -17 -33 -20
-123 -20 -56 0 -125 -3 -154 -6 l-52 -7 -192 -361 c-269 -503 -359 -682 -359
-707 0 -35 38 -105 67 -125 18 -11 55 -18 115 -22 49 -3 91 -8 93 -12 9 -15
-186 -366 -271 -488 -43 -61 -44 -65 -44 -142 l0 -80 1144 0 1144 0 62 -70
c177 -200 403 -287 650 -251 193 29 360 122 472 267 l43 54 1142 0 1143 0 0
73 c0 69 -3 78 -38 133 -56 86 -191 316 -246 417 -34 62 -44 88 -34 91 7 3 50
6 96 9 97 4 124 19 162 90 24 45 24 47 8 89 -9 24 -135 268 -281 543 l-265
500 -157 5 c-141 4 -158 7 -171 25 -22 30 -12 39 53 47 85 9 150 45 220 122
106 115 147 230 160 435 l6 114 -32 -19 c-57 -33 -245 -235 -289 -309 -22 -38
-64 -126 -92 -194 -28 -69 -52 -126 -54 -129 -2 -2 -21 25 -42 59 l-37 62
-226 -6 c-162 -5 -252 -13 -318 -26 -107 -22 -253 -68 -268 -83 -7 -7 -7 -9 0
-5 26 14 322 28 462 22 l151 -7 120 -217 c132 -236 318 -583 381 -709 l40 -79
-507 -6 c-646 -7 -804 -23 -1107 -109 -198 -57 -330 -112 -462 -193 -24 -14
-43 -24 -43 -22 0 9 139 117 209 162 191 124 395 197 726 261 133 26 158 28
510 32 210 2 363 8 354 12 -8 5 -51 18 -95 29 -275 71 -622 84 -911 36 -114
-19 -361 -99 -482 -156 -46 -21 -86 -37 -88 -35 -2 2 36 36 84 75 105 86 254
163 368 191 197 48 531 74 825 66 204 -6 204 -3 0 40 -117 24 -138 26 -330 21
-231 -5 -331 -24 -498 -93 -261 -108 -441 -212 -635 -367 -60 -48 -110 -87
-113 -87 -22 0 156 220 268 331 178 176 512 387 868 547 72 33 -276 -29 -402
-72 -104 -35 -229 -95 -321 -156 -43 -27 -80 -50 -82 -50 -7 0 63 157 92 208
15 26 47 71 71 100 23 28 40 52 38 52 -3 0 -39 -27 -80 -60 -65 -52 -144 -138
-208 -230 -17 -24 -18 -20 -13 120 8 230 1 357 -30 596 l-6 41 53 7 c102 13
211 86 257 173 l20 38 1 -262 0 -263 30 0 30 0 0 205 c0 134 4 205 10 205 6 0
41 -20 77 -45 l67 -44 51 77 c140 209 183 312 194 462 l7 95 14 -45 c18 -61
16 -237 -4 -330 -14 -62 -67 -228 -100 -315 -6 -16 -4 -15 14 5 28 32 210 275
278 371 28 41 52 71 52 67 0 -3 -16 -39 -35 -79 -34 -74 -79 -231 -92 -325
l-6 -49 44 46 c46 46 167 134 175 126 2 -2 -5 -16 -16 -30 -25 -32 -100 -159
-100 -169 0 -5 37 -8 83 -8 l84 0 112 284 c63 156 110 289 107 294 -3 6 -21
14 -39 17 -54 12 -103 42 -145 90 -46 52 -70 113 -79 199 l-6 59 42 -7 c95
-15 183 -84 231 -178 16 -34 30 -69 30 -80 0 -10 3 -18 8 -18 5 0 77 170 117
282 5 12 -1 18 -27 23 -55 12 -126 56 -152 94 -40 60 -49 100 -42 182 10 100
14 106 62 83 83 -40 168 -159 181 -253 7 -49 15 -45 49 21 l26 51 -25 56 c-35
80 -41 123 -23 185 13 43 77 159 106 190 5 5 23 -20 41 -55 26 -51 33 -80 37
-142 6 -94 -13 -151 -69 -212 -36 -39 -99 -150 -99 -175 0 -6 16 -2 38 9 51
26 130 41 214 41 80 0 80 3 25 -89 -38 -64 -77 -95 -136 -111 -51 -14 -102 -6
-149 21 -18 10 -35 19 -37 19 -2 0 -13 -30 -26 -67 -12 -38 -37 -103 -55 -147
l-33 -78 37 8 c20 5 78 9 127 9 78 0 97 -4 145 -28 30 -15 68 -39 85 -53 l29
-27 -29 -23 c-49 -40 -128 -64 -206 -64 -78 0 -122 15 -180 61 -22 17 -41 30
-42 28 -1 -2 -38 -113 -82 -246 l-80 -242 200 -3 c110 -2 207 -7 216 -11 12
-6 23 10 53 73 79 169 231 352 375 451 51 34 67 52 74 79 11 42 2 359 -13 480
-38 295 -120 558 -259 826 -375 723 -1031 1197 -1816 1310 -100 14 -409 26
-475 18z m130 -434 c0 -5 -7 -10 -15 -10 -9 0 -43 -13 -78 -29 -189 -86 -306
-251 -323 -454 -18 -210 101 -411 299 -506 168 -81 340 -76 505 15 34 19 62
31 62 26 0 -21 -63 -103 -124 -160 -76 -70 -176 -125 -268 -147 -81 -19 -216
-19 -297 0 -153 36 -331 168 -411 304 -64 111 -85 188 -85 321 0 128 11 181
60 280 74 148 211 269 369 327 93 34 306 57 306 33z m533 -217 c-36 -28 -39
-28 -59 2 -16 25 -16 27 6 50 l24 25 28 -27 28 -27 -27 -23z m526 -20 c-1 -50
-3 -61 -9 -43 -12 36 -12 110 0 110 6 0 10 -29 9 -67z m-2151 -183 c16 -9 16
-11 0 -20 -10 -6 -29 -27 -42 -46 l-23 -35 -12 29 c-7 15 -25 36 -41 45 l-29
18 42 42 42 42 23 -32 c12 -18 30 -37 40 -43z m2212 49 c102 -22 182 -144 166
-257 -28 -206 -296 -279 -421 -115 -45 58 -59 104 -52 168 6 63 24 100 68 143
68 67 134 84 239 61z m-370 -39 c19 -11 29 -19 22 -20 -14 0 -72 28 -72 35 0
9 15 4 50 -15z m690 16 c0 -9 -108 -66 -124 -66 -34 0 -14 19 47 43 63 26 77
30 77 23z m-1353 -113 l-31 -33 -28 27 c-15 15 -28 31 -28 35 0 5 12 24 27 43
l27 34 32 -37 32 -37 -31 -32z m1322 -178 c30 -14 52 -28 49 -31 -7 -6 -116
35 -123 47 -10 16 18 10 74 -16z m-619 -55 c-8 -5 -22 -10 -30 -10 -13 0 -13
1 0 10 8 5 22 10 30 10 13 0 13 -1 0 -10z m-2458 -91 c22 -12 22 -12 -6 -32
-16 -11 -36 -34 -46 -50 l-18 -29 -16 30 c-9 17 -28 42 -42 56 -26 23 -26 24
-6 30 12 4 31 23 43 42 l21 35 24 -35 c14 -20 34 -41 46 -47z m2536 -1 c2 -9
-25 -58 -58 -109 -175 -265 -227 -464 -237 -896 -3 -133 -10 -247 -14 -255
-18 -27 -27 16 -34 161 -13 243 19 515 81 701 34 102 120 263 185 349 53 69
71 80 77 49z m942 -72 l-30 -31 -32 32 -32 33 29 30 29 30 33 -32 33 -32 -30
-30z m-717 -31 c4 -27 3 -35 -3 -25 -5 8 -10 28 -10 44 0 39 6 30 13 -19z
m-2286 -184 c-21 -19 -43 -46 -49 -60 l-10 -26 -13 30 c-13 31 -45 64 -80 83
-18 9 -17 12 17 28 20 9 44 31 54 49 l17 32 52 -51 52 -51 -40 -34z m2423
-114 c0 -26 58 -94 85 -101 26 -7 26 -7 -22 -39 -33 -22 -51 -42 -58 -64 -5
-18 -12 -33 -15 -33 -3 0 -14 19 -25 43 -15 30 -32 48 -64 64 l-43 22 42 26
c23 14 50 42 62 61 21 35 38 44 38 21z m-1847 -322 c20 -11 37 -22 37 -25 0
-3 -13 -11 -30 -17 -18 -7 -41 -29 -57 -57 -16 -25 -30 -45 -33 -45 -3 0 -14
19 -25 42 -13 27 -31 47 -52 57 -18 8 -32 18 -30 22 1 4 18 17 37 30 19 13 43
41 53 62 l18 38 23 -44 c14 -26 36 -51 59 -63z m1774 -401 c8 -21 -13 -42 -28
-27 -13 13 -5 43 11 43 6 0 13 -7 17 -16z m-1009 -4 l66 0 -29 -30 -29 -30 31
0 c16 0 52 7 78 15 27 8 51 13 52 11 2 -2 -15 -20 -37 -40 l-41 -37 27 -32
c23 -27 24 -33 10 -35 -9 -2 -37 9 -63 23 l-46 27 7 -26 c8 -31 3 -32 -71 -10
-82 24 -75 10 14 -24 l78 -30 18 -64 c20 -74 17 -163 -7 -201 -21 -32 -63 -49
-113 -47 -54 3 -57 2 -43 -15 17 -20 4 -35 -31 -35 -38 0 -69 32 -69 71 0 21
-9 39 -31 59 -32 29 -32 36 1 75 10 11 21 38 24 60 l7 40 -33 -50 c-40 -60
-86 -86 -147 -83 -51 3 -65 23 -23 31 15 3 38 14 51 24 22 18 21 18 -36 15
-48 -3 -64 0 -83 17 l-25 20 31 1 c41 0 49 12 63 94 13 75 39 121 74 132 12 4
38 20 57 35 42 34 99 50 159 44 24 -3 73 -5 109 -5z m-1188 -64 c0 -14 -5 -28
-10 -31 -13 -8 -24 20 -16 40 9 24 26 17 26 -9z m1637 -108 c38 -36 27 -138
-15 -138 -27 0 -80 36 -87 60 -11 34 3 68 33 84 36 20 42 20 69 -6z m-87 -193
c0 -90 -74 -206 -156 -246 -53 -25 -132 -29 -179 -9 -30 13 -30 13 35 22 147
19 230 96 276 256 7 26 24 10 24 -23z m-580 -270 c29 -19 63 -38 76 -41 13 -3
24 -11 24 -16 0 -26 -123 31 -148 70 -20 30 -13 28 48 -13z m-60 -92 c0 -9
-13 -37 -30 -62 -62 -98 -111 -225 -144 -374 -4 -17 -11 -25 -18 -21 -13 8 -5
100 18 187 37 147 174 358 174 270z m2398 -605 c30 -50 147 -269 266 -500
l108 -208 -86 0 -85 0 -58 103 c-119 213 -332 621 -327 629 3 4 41 8 84 8 78
0 79 0 98 -32z m-4389 -155 c-180 -348 -282 -538 -294 -552 -10 -10 -30 -11
-93 -5 l-80 9 114 215 c64 118 147 275 187 349 39 73 77 140 85 147 9 10 39
14 93 14 l80 0 -92 -177z m2216 -4 c22 -140 21 -168 -4 -217 -37 -73 -45 -47
-38 140 8 227 17 243 42 77z m-1495 -710 c113 -6 209 -14 213 -18 14 -14
-1455 -40 -1506 -27 -31 7 -37 39 -9 56 21 13 984 5 1302 -11z m4165 7 c30
-21 12 -44 -42 -52 -84 -13 -1568 14 -1519 27 33 9 481 29 731 32 609 8 811 7
830 -7z m-3750 -146 c356 -30 601 -100 856 -246 128 -73 171 -77 264 -25 245
137 353 180 551 220 277 56 657 76 1184 61 417 -11 512 -18 507 -33 -7 -21
-73 -25 -587 -36 -461 -10 -889 -27 -898 -36 -8 -8 190 -15 553 -20 386 -6
811 -22 827 -31 4 -3 1 -16 -8 -30 l-16 -24 -577 -1 c-317 -1 -675 -4 -796 -8
l-220 -6 175 -8 c96 -4 279 -12 405 -18 315 -13 691 -37 864 -54 130 -13 175
-24 159 -40 -2 -3 -436 -8 -964 -13 l-959 -7 -6 -70 c-8 -109 -55 -177 -154
-226 -54 -27 -74 -31 -139 -31 -175 1 -306 122 -306 282 l0 47 -917 7 c-505 4
-940 11 -968 15 -48 7 -49 8 -24 18 37 16 570 54 1019 72 129 6 312 14 405 18
l170 8 -225 6 c-124 4 -487 7 -806 8 l-582 1 -16 24 c-9 14 -12 27 -7 30 16
10 437 25 851 31 228 3 444 9 480 13 l65 6 -75 7 c-41 3 -259 11 -485 18 -908
27 -915 27 -932 44 -14 14 -10 16 38 21 203 23 1039 27 1294 6z m-1396 -222
l41 -57 -21 -36 -21 -35 -80 0 -79 0 52 100 c29 55 56 97 59 93 4 -5 26 -34
49 -65z m4930 -39 c22 -42 38 -79 34 -82 -3 -4 -34 -7 -69 -7 -60 0 -63 1 -83
34 -28 44 -27 50 15 108 43 58 42 59 103 -53z m-2944 -305 c44 -96 132 -187
227 -233 l66 -33 139 4 c138 3 140 3 215 41 56 27 91 53 128 95 55 61 100 142
100 179 l0 23 1118 0 1118 0 47 -48 48 -49 -197 -6 c-108 -4 -616 -7 -1129 -7
l-932 0 -24 -52 c-15 -34 -54 -83 -104 -134 -88 -88 -132 -111 -270 -141 -143
-31 -327 1 -446 78 -64 41 -138 123 -175 193 l-29 56 -1132 0 c-623 0 -1133 3
-1133 7 0 3 24 28 53 54 l52 48 1113 1 1113 0 34 -76z"/>
<path d="M504 4973 c29 -388 203 -674 525 -863 l54 -31 -6 113 c-9 153 -33
288 -68 376 -61 154 -174 291 -319 389 -71 47 -171 103 -186 103 -4 0 -4 -39
0 -87z"/>
<path d="M6614 5033 c-256 -136 -418 -328 -474 -566 -19 -81 -44 -352 -33
-370 13 -21 201 113 294 210 107 112 174 226 223 383 42 131 70 350 48 364 -5
3 -31 -7 -58 -21z"/>
<path d="M535 4100 c-8 -13 89 -160 150 -228 98 -109 203 -167 392 -218 l102
-27 33 35 c18 19 40 37 48 40 22 7 -47 107 -134 193 -113 111 -242 171 -436
200 -112 18 -147 19 -155 5z"/>
<path d="M6495 4099 c-210 -27 -391 -125 -503 -276 -82 -108 -81 -104 -32
-153 l43 -43 101 27 c55 15 144 48 196 73 81 39 107 58 180 133 53 54 103 118
132 168 l47 82 -47 -1 c-26 -1 -78 -5 -117 -10z"/>
<path d="M845 3591 c-5 -10 105 -118 169 -165 36 -27 52 -34 61 -26 15 13 60
119 53 126 -16 16 -276 75 -283 65z"/>
<path d="M6195 3568 c-71 -17 -134 -33 -138 -38 -9 -8 48 -130 61 -130 31 1
226 180 211 194 -2 2 -62 -10 -134 -26z"/>
<path d="M2070 3279 c-163 -21 -144 -25 140 -32 157 -4 310 -9 340 -12 l55 -5
-74 20 c-144 37 -315 48 -461 29z"/>
<path d="M4780 3280 c-71 -10 -254 -50 -248 -55 2 -1 46 1 98 6 52 5 212 12
355 16 249 6 257 7 195 20 -85 17 -317 24 -400 13z"/>
<path d="M1803 1101 c-50 -23 -73 -62 -73 -126 0 -69 31 -95 145 -124 101 -25
115 -33 115 -67 0 -52 -102 -74 -154 -33 -14 11 -26 27 -26 35 0 10 -13 14
-45 14 -51 0 -55 -10 -29 -66 46 -97 238 -114 314 -27 24 27 30 43 30 81 0 80
-30 106 -160 137 -106 25 -132 53 -90 95 29 29 94 27 125 -5 14 -13 25 -29 25
-35 0 -5 21 -10 46 -10 l47 0 -7 32 c-19 96 -156 147 -263 99z"/>
<path d="M3860 885 l0 -225 45 0 45 0 0 225 0 225 -45 0 -45 0 0 -225z"/>
<path d="M4030 885 l0 -225 45 0 45 0 0 225 0 225 -45 0 -45 0 0 -225z"/>
<path d="M4990 899 c-41 -117 -77 -219 -78 -226 -3 -11 8 -13 45 -11 47 3 48
4 63 46 l14 42 82 0 82 0 14 -42 c14 -42 15 -43 66 -46 l51 -3 -50 143 c-28
79 -63 179 -78 223 l-28 80 -54 3 -54 3 -75 -212z m155 20 c14 -44 25 -82 25
-85 0 -2 -25 -4 -56 -4 -41 0 -55 3 -51 13 2 6 15 45 28 85 12 39 24 72 26 72
1 0 14 -36 28 -81z"/>
<path d="M5380 885 l0 -225 50 0 50 0 0 225 0 225 -50 0 -50 0 0 -225z"/>
<path d="M2150 1035 c0 -38 -3 -45 -20 -45 -16 0 -20 -7 -20 -30 0 -23 5 -30
19 -30 18 0 20 -10 23 -116 3 -108 5 -117 27 -135 15 -12 39 -19 67 -19 42 0
44 1 44 29 0 23 -5 30 -22 33 -22 3 -23 8 -26 106 l-3 102 26 0 c21 0 25 5 25
30 0 25 -4 30 -25 30 -23 0 -25 4 -25 45 l0 45 -45 0 -45 0 0 -45z"/>
<path d="M3320 1035 c0 -38 -3 -45 -20 -45 -16 0 -20 -7 -20 -30 0 -23 5 -30
19 -30 18 0 20 -10 23 -116 3 -108 5 -117 27 -135 15 -12 39 -19 67 -19 42 0
44 1 44 29 0 23 -5 30 -22 33 -22 3 -23 8 -26 106 l-3 102 26 0 c21 0 25 5 25
30 0 25 -4 30 -25 30 -23 0 -25 4 -25 45 l0 45 -45 0 -45 0 0 -45z"/>
<path d="M2420 983 c-123 -64 -112 -281 16 -323 48 -16 129 -8 162 17 37 26
72 99 72 148 0 49 -35 122 -72 149 -39 28 -132 33 -178 9z m115 -59 c63 -25
55 -184 -11 -200 -45 -11 -77 7 -93 52 -33 95 25 178 104 148z"/>
<path d="M2865 988 c-11 -6 -28 -21 -37 -32 -17 -21 -17 -21 -18 7 0 25 -3 27
-40 27 l-40 0 0 -165 0 -165 45 0 45 0 0 105 c0 118 13 145 70 145 29 0 30 2
30 45 0 49 -14 57 -55 33z"/>
<path d="M3584 986 c-53 -23 -78 -71 -82 -151 -4 -87 16 -130 73 -162 46 -26
101 -29 149 -9 34 14 76 59 76 82 0 22 -68 17 -97 -6 -45 -35 -106 -17 -115
35 l-5 25 115 0 115 0 -6 51 c-4 28 -15 65 -27 84 -36 59 -125 82 -196 51z
m116 -78 c35 -38 26 -48 -45 -48 -72 0 -83 12 -45 50 26 26 64 25 90 -2z"/>
<path d="M4264 986 c-53 -23 -78 -71 -82 -151 -4 -87 16 -130 73 -162 46 -26
101 -29 149 -9 34 14 76 59 76 82 0 22 -68 17 -97 -6 -45 -35 -106 -17 -115
35 l-5 25 115 0 115 0 -6 51 c-4 28 -15 65 -27 84 -36 59 -125 82 -196 51z
m116 -78 c35 -38 26 -48 -45 -48 -72 0 -83 12 -45 50 26 26 64 25 90 -2z"/>
<path d="M4675 988 c-11 -6 -28 -21 -37 -32 -17 -21 -17 -21 -18 7 0 25 -3 27
-40 27 l-40 0 0 -165 0 -165 45 0 45 0 0 105 c0 118 13 145 70 145 29 0 30 2
30 45 0 49 -14 57 -55 33z"/>
<path d="M2944 975 c3 -9 31 -87 61 -173 46 -128 54 -161 46 -179 -7 -15 -19
-23 -36 -23 -22 0 -25 -4 -25 -35 0 -34 1 -35 39 -35 69 0 84 22 161 243 39
109 70 202 70 207 0 6 -19 10 -43 10 l-43 0 -28 -104 c-16 -57 -32 -109 -36
-115 -4 -7 -22 40 -40 104 l-34 115 -49 0 c-40 0 -48 -3 -43 -15z"/>
</g>
</svg>
