<?xml version="1.0" standalone="no"?>
<!DOCTYPE svg PUBLIC "-//W3C//DTD SVG 20010904//EN"
 "http://www.w3.org/TR/2001/REC-SVG-20010904/DTD/svg10.dtd">
<svg version="1.0" xmlns="http://www.w3.org/2000/svg"
 width="100%" height="100%" viewBox="0 0 1024.000000 1024.000000"
 preserveAspectRatio="xMidYMid meet">

<g transform="translate(0.000000,1024.000000) scale(0.100000,-0.100000)" fill="currentColor">
<path d="M4955 8013 c-974 -85 -1782 -723 -2112 -1668 -96 -277 -148 -642
-129 -906 l8 -94 59 -39 c168 -109 342 -329 407 -514 11 -32 12 -33 36 -17 21
14 54 16 220 13 108 -2 196 0 196 4 0 3 -15 46 -34 95 -26 69 -86 247 -132
392 -3 9 -18 1 -48 -27 -100 -92 -265 -91 -381 2 l-29 24 33 28 c59 51 103 73
170 85 64 11 129 3 204 -26 22 -9 22 6 0 48 -9 18 -35 83 -58 146 -26 68 -45
108 -50 101 -13 -21 -88 -50 -130 -50 -50 0 -112 28 -146 66 -27 31 -79 120
-79 136 0 7 39 9 103 6 85 -3 112 -8 161 -31 32 -15 60 -26 62 -24 9 9 -72
153 -102 184 -50 49 -76 115 -76 188 0 64 28 152 61 194 l19 25 26 -30 c14
-16 40 -58 58 -93 42 -89 44 -171 4 -252 l-28 -56 33 -64 33 -64 8 52 c16 110
80 200 176 251 l59 32 7 -53 c9 -75 7 -137 -4 -177 -21 -77 -112 -149 -187
-150 -18 0 -33 -4 -33 -8 0 -5 29 -77 63 -160 l64 -152 12 54 c15 65 57 134
105 171 33 25 151 75 178 75 7 0 9 -25 5 -79 -6 -93 -38 -164 -98 -215 -37
-31 -117 -66 -151 -66 -10 0 -18 -5 -18 -11 0 -15 219 -561 229 -572 4 -4 67
-6 139 -5 l132 3 -47 83 c-25 45 -62 100 -80 122 -19 22 -32 40 -28 40 13 0
144 -111 174 -147 17 -21 31 -34 31 -30 0 4 -16 62 -35 129 -35 118 -68 195
-107 250 -11 17 -14 26 -6 22 16 -6 115 -130 198 -248 62 -87 189 -231 197
-222 2 2 -7 26 -20 53 -69 136 -107 304 -106 461 l0 107 19 -71 c24 -92 65
-182 129 -282 71 -110 85 -119 56 -35 -49 140 -58 304 -25 462 10 52 23 98 27
102 4 4 6 -34 5 -85 -6 -155 41 -306 141 -453 43 -64 63 -81 48 -40 -9 23 -34
206 -46 337 l-6 65 24 -55 c22 -52 118 -201 170 -265 l25 -29 73 13 c41 7 94
15 119 18 l45 6 -68 -68 c-83 -82 -116 -129 -167 -237 -45 -93 -83 -248 -78
-317 3 -39 6 -46 26 -49 16 -2 22 -10 22 -27 0 -43 21 -74 57 -84 55 -16 91 3
118 62 l24 50 5 -34 c3 -19 7 -141 9 -271 l4 -238 -62 105 c-35 58 -82 130
-105 160 -46 59 -146 157 -201 195 l-34 24 36 -40 c50 -57 91 -118 133 -201
20 -40 36 -75 36 -78 0 -3 -24 12 -52 33 -111 82 -269 156 -421 196 -97 26
-346 70 -354 62 -2 -2 20 -12 49 -21 135 -43 469 -231 700 -395 130 -92 300
-259 386 -379 39 -55 72 -104 72 -108 0 -4 -19 11 -42 33 -132 125 -277 220
-504 330 -217 106 -333 148 -484 175 -159 29 -296 34 -429 15 -112 -16 -336
-65 -329 -72 2 -2 70 1 151 7 97 6 224 6 374 -1 497 -21 698 -84 923 -290 l45
-41 -53 26 c-153 74 -439 163 -602 186 -127 18 -461 16 -603 -5 -101 -14 -355
-71 -366 -82 -2 -2 95 -1 215 3 661 18 1139 -96 1485 -353 103 -77 140 -114
68 -68 -66 42 -180 91 -319 139 -343 117 -646 149 -1353 143 -207 -2 -377 1
-377 5 0 4 42 88 94 185 127 242 394 739 419 784 l21 36 126 8 c134 7 335 0
452 -16 39 -6 73 -8 75 -6 8 8 -209 74 -302 92 -68 13 -145 17 -319 18 l-229
1 -31 -57 c-17 -32 -33 -58 -36 -58 -3 0 -30 60 -60 132 -70 167 -122 255
-201 342 -61 67 -182 166 -202 166 -17 0 0 -207 23 -290 31 -107 86 -205 155
-277 65 -65 119 -90 213 -95 52 -2 59 -11 38 -43 -16 -24 -19 -25 -172 -27
-127 -2 -159 -6 -166 -18 -17 -31 -196 -365 -370 -694 -168 -316 -180 -342
-175 -382 6 -53 40 -102 83 -120 19 -8 68 -14 114 -14 44 0 80 -4 80 -10 0
-23 -193 -367 -266 -473 l-54 -79 0 -79 0 -79 1143 0 1143 0 73 -80 c166 -184
347 -260 585 -247 212 11 406 112 532 277 l38 50 1143 0 1143 0 0 79 c0 73 -2
81 -33 122 -53 70 -297 491 -297 512 0 4 38 7 85 7 109 0 154 20 184 83 29 59
27 75 -17 159 -82 157 -354 671 -435 823 l-86 160 -153 3 c-142 2 -154 4 -170
23 -31 37 -23 49 32 49 112 0 214 68 300 201 61 95 91 199 97 348 l6 124 -34
-19 c-19 -10 -81 -66 -139 -124 -121 -122 -168 -195 -245 -391 l-50 -127 -39
65 -38 65 -227 -5 c-178 -3 -247 -9 -326 -26 -112 -23 -326 -94 -260 -86 162
20 317 27 456 20 l156 -7 111 -196 c60 -109 149 -271 197 -362 48 -91 121
-227 161 -303 41 -77 74 -141 74 -143 0 -2 -197 -4 -438 -4 -648 0 -899 -25
-1225 -125 -188 -57 -299 -106 -437 -194 -59 -37 7 23 109 100 191 144 420
239 721 299 238 47 321 54 662 54 l317 1 -77 22 c-340 100 -800 105 -1117 12
-118 -35 -266 -90 -350 -130 l-80 -39 55 50 c128 117 266 195 405 229 212 53
597 81 875 63 91 -6 166 -9 168 -7 4 4 -196 51 -288 67 -109 19 -355 16 -465
-6 -172 -33 -248 -60 -472 -167 -200 -95 -302 -161 -475 -307 -49 -40 -88 -69
-88 -64 0 24 165 229 264 327 88 88 147 134 286 227 224 149 377 236 515 293
l110 46 -65 -6 c-96 -9 -259 -42 -353 -71 -113 -36 -289 -121 -364 -177 -35
-26 -63 -45 -63 -43 0 2 13 35 28 73 42 103 95 193 149 254 l48 53 -49 -34
c-85 -60 -174 -149 -226 -227 l-50 -75 0 145 c0 99 4 147 11 149 11 4 5 72
-36 454 l-4 41 50 6 c112 14 217 86 260 181 l19 41 0 -267 0 -268 30 0 30 0 2
211 3 210 74 -51 c40 -28 75 -49 76 -48 1 2 35 53 75 113 132 201 169 299 171
449 1 91 1 91 14 49 24 -75 28 -190 11 -298 -16 -107 -74 -298 -107 -354 -72
-122 96 83 243 297 93 135 133 182 86 101 -39 -67 -77 -181 -103 -309 -13 -63
-22 -116 -21 -118 2 -2 18 15 35 37 31 39 90 86 164 130 l38 23 -44 -63 c-41
-59 -87 -140 -87 -154 0 -3 37 -5 83 -5 l83 0 112 279 c61 153 113 285 114
292 2 7 -12 16 -35 21 -132 28 -220 134 -234 281 l-6 67 26 0 c15 0 46 -8 69
-17 102 -39 175 -121 202 -223 13 -51 15 -53 24 -30 5 14 33 82 61 152 28 69
51 128 51 131 0 3 -22 10 -50 17 -73 18 -127 61 -157 127 -24 51 -25 63 -19
142 3 47 11 90 16 95 13 13 71 -17 124 -64 45 -40 106 -159 106 -206 0 -51 10
-46 43 18 l30 61 -26 53 c-54 110 -45 190 36 311 l50 75 18 -23 c10 -13 28
-51 41 -84 45 -118 21 -248 -57 -313 -21 -17 -47 -57 -69 -105 -36 -78 -36
-88 -1 -63 38 26 128 46 212 46 46 0 83 -2 83 -5 0 -14 -52 -106 -77 -135 -66
-79 -200 -91 -273 -25 -14 13 -19 6 -44 -72 -16 -47 -41 -115 -57 -151 -34
-75 -34 -75 -11 -63 10 5 45 14 78 20 103 19 216 -14 299 -86 l29 -26 -24 -20
c-56 -45 -131 -71 -210 -72 -65 0 -82 4 -128 30 -30 16 -62 40 -73 53 -13 18
-20 20 -23 11 -3 -8 -23 -72 -46 -144 -22 -71 -58 -178 -79 -237 l-38 -108
203 0 c124 0 205 -4 209 -10 12 -20 25 -9 42 33 75 188 235 385 401 493 60 38
61 40 68 93 4 30 4 136 1 235 -14 463 -150 887 -411 1286 -407 620 -1036 1008
-1761 1086 -119 13 -300 16 -400 7z m140 -433 c-3 -5 -14 -10 -24 -10 -10 0
-56 -18 -101 -41 -177 -89 -281 -244 -297 -441 -12 -159 37 -290 151 -404 181
-181 449 -213 669 -80 l58 35 -28 -52 c-45 -83 -147 -177 -244 -225 -101 -49
-161 -62 -279 -62 -116 0 -178 13 -275 60 -231 111 -375 334 -375 581 0 178
60 321 189 450 101 100 198 152 341 183 77 17 224 21 215 6z m522 -222 c-20
-19 -33 -26 -35 -18 -3 7 -13 21 -24 32 -18 18 -18 19 9 43 l28 24 27 -26 27
-26 -32 -29z m532 -20 c-1 -71 -2 -77 -10 -43 -11 56 -11 125 1 125 6 0 10
-33 9 -82z m-2158 -172 l23 -16 -23 -16 c-12 -9 -31 -29 -40 -46 l-18 -29 -13
31 c-7 16 -15 30 -19 30 -3 0 -17 9 -31 19 l-24 19 25 12 c14 6 34 25 43 42
l18 30 18 -30 c10 -16 29 -37 41 -46z m2282 18 c118 -83 141 -247 50 -354 -66
-76 -152 -103 -247 -76 -68 20 -113 58 -150 126 -25 45 -28 60 -24 119 3 58 9
74 38 117 24 33 53 58 90 77 49 26 63 28 128 24 61 -3 80 -9 115 -33z m-432
-15 c23 -11 39 -23 36 -25 -5 -6 -87 33 -87 41 0 9 10 6 51 -16z m684 12 c-6
-5 -35 -23 -67 -40 -38 -22 -59 -28 -63 -21 -9 15 -8 16 61 45 63 26 84 31 69
16z m-1360 -30 c8 -16 24 -32 35 -36 18 -6 17 -9 -18 -43 l-37 -37 -34 35
c-32 33 -33 34 -14 50 11 9 25 26 32 38 15 28 17 28 36 -7z m1336 -257 c73
-33 78 -51 8 -23 -60 23 -89 38 -89 44 0 11 25 4 81 -21z m-621 -54 c-8 -5
-22 -10 -30 -10 -13 0 -13 1 0 10 8 5 22 10 30 10 13 0 13 -1 0 -10z m-2465
-87 l28 -20 -30 -18 c-17 -10 -37 -32 -45 -48 l-15 -31 -19 40 c-10 21 -29 43
-41 49 -29 12 -29 19 2 33 13 6 31 25 40 43 l17 31 18 -29 c10 -16 30 -39 45
-50z m2545 2 c10 -12 2 -28 -43 -90 -70 -95 -148 -247 -180 -350 -56 -180 -77
-352 -77 -635 0 -189 -1 -200 -19 -200 -17 0 -19 13 -26 163 -19 452 62 783
257 1045 34 45 64 82 68 82 4 0 13 -7 20 -15z m941 -16 c16 -17 29 -33 29 -34
0 -2 -13 -17 -30 -33 l-30 -30 -32 32 -33 33 30 30 c17 17 32 31 33 32 2 0 17
-13 33 -30z m-721 -71 c0 -13 3 -34 7 -48 3 -14 2 -22 -2 -18 -11 11 -24 88
-14 88 5 0 9 -10 9 -22z m-2321 -100 c10 -18 32 -40 49 -48 17 -8 32 -18 32
-22 0 -3 -16 -16 -36 -29 -21 -12 -43 -37 -51 -57 l-15 -35 -18 41 c-13 28
-31 47 -57 61 l-38 19 38 17 c29 12 43 26 55 55 10 21 18 37 20 35 2 -2 11
-18 21 -37z m2466 -235 c20 -48 50 -80 83 -88 l27 -7 -37 -19 c-41 -21 -78
-63 -78 -90 0 -34 -17 -28 -29 11 -12 41 -48 76 -88 86 -32 9 -29 16 20 39 31
15 47 31 62 62 11 23 21 42 22 43 2 0 10 -17 18 -37z m-1921 -227 c9 -35 52
-83 81 -90 27 -7 35 -26 11 -26 -24 0 -74 -49 -88 -85 -15 -44 -24 -44 -32 -1
-7 35 -55 86 -81 86 -32 0 -22 20 19 39 37 16 47 26 57 60 14 47 24 52 33 17z
m1851 -491 c0 -13 -8 -21 -22 -23 -17 -3 -23 2 -23 16 0 10 3 22 7 26 13 13
38 1 38 -19z m-996 5 l46 -1 -27 -24 c-16 -13 -28 -27 -28 -30 0 -13 89 -3
123 14 20 10 37 16 37 12 -1 -12 -35 -49 -62 -65 l-27 -17 32 -29 c24 -21 29
-32 21 -40 -8 -8 -24 -3 -60 19 -58 38 -72 39 -50 6 16 -24 16 -25 -6 -25 -13
1 -48 9 -78 20 -30 10 -56 17 -58 15 -7 -7 94 -53 131 -60 34 -7 36 -10 43
-54 3 -25 12 -56 19 -67 18 -29 5 -126 -22 -162 -24 -33 -86 -52 -127 -41 -34
10 -45 4 -28 -13 22 -22 13 -38 -21 -38 -51 0 -77 24 -77 70 0 32 -6 43 -30
60 -36 26 -37 38 -6 65 18 14 27 34 31 70 l6 50 -20 -39 c-26 -49 -48 -74 -83
-92 -42 -22 -147 -16 -132 7 3 5 16 9 29 9 13 0 37 12 52 26 l28 25 -25 -8
c-44 -13 -103 -5 -125 18 -17 19 -17 21 -2 16 9 -4 28 -2 41 3 20 7 25 18 31
72 4 35 13 77 20 95 13 31 54 66 72 61 5 -2 20 10 34 25 37 42 91 58 178 52
41 -3 95 -5 120 -5z m-1204 -70 c0 -27 -22 -39 -31 -16 -8 22 3 49 19 43 6 -2
12 -14 12 -27z m1635 -100 c20 -20 24 -40 20 -90 -4 -55 -43 -65 -97 -24 -26
19 -33 32 -33 58 0 43 26 66 83 75 4 0 16 -8 27 -19z m-90 -188 c0 -65 -27
-136 -71 -186 -48 -54 -78 -72 -148 -87 -43 -9 -60 -8 -103 7 l-53 18 72 8
c146 15 233 90 272 236 15 52 31 55 31 4z m-543 -301 c23 -12 49 -21 58 -21 9
0 13 -4 10 -10 -14 -23 -111 14 -144 56 -30 38 -26 52 7 22 15 -14 46 -35 69
-47z m-97 -55 c9 -12 3 -27 -31 -78 -66 -97 -124 -248 -141 -372 -2 -11 -9
-21 -15 -24 -34 -11 1 193 52 307 27 58 105 180 116 181 4 0 12 -6 19 -14z
m248 -553 c-21 -2 -57 -2 -80 0 -24 2 -7 4 37 4 44 0 63 -2 43 -4z m-2306
-350 c-88 -169 -175 -335 -194 -368 l-34 -60 -87 0 c-48 -1 -87 1 -87 3 0 3
17 37 39 76 21 39 61 114 89 166 148 282 226 428 244 457 19 32 21 32 101 35
45 2 84 2 86 1 2 -1 -69 -141 -157 -310z m4476 250 c34 -59 97 -177 308 -582
24 -46 44 -86 44 -90 0 -3 -38 -5 -84 -3 l-85 3 -44 77 c-81 141 -347 643
-347 655 0 4 38 7 85 7 l84 0 39 -67z m-2203 -55 c3 -29 13 -92 21 -140 14
-87 14 -88 -11 -137 -39 -79 -45 -73 -45 42 0 135 11 287 21 287 4 0 10 -24
14 -52z m-1445 -779 c277 -19 271 -25 -35 -32 -518 -12 -1270 -20 -1297 -14
-33 9 -42 32 -20 53 15 16 62 16 607 10 324 -4 660 -11 745 -17z m4124 15 c9
-3 16 -14 16 -24 0 -43 -4 -44 -533 -37 -562 8 -1089 19 -1084 23 11 11 298
28 582 33 476 10 1000 12 1019 5z m-3924 -144 c312 -14 482 -39 683 -101 131
-40 262 -98 356 -159 123 -79 178 -77 311 9 322 209 778 277 1680 252 212 -6
416 -14 454 -17 66 -6 68 -7 50 -25 -18 -17 -56 -19 -604 -29 -540 -9 -804
-21 -905 -39 -22 -4 199 -10 490 -13 487 -6 925 -23 925 -37 0 -3 -8 -16 -18
-29 l-18 -23 -494 1 c-462 0 -1134 -9 -1127 -16 2 -2 160 -8 353 -14 549 -17
1249 -64 1273 -86 8 -8 12 -16 9 -20 -4 -3 -438 -9 -965 -12 l-958 -5 -1 -61
c-3 -172 -169 -297 -354 -267 -146 24 -249 137 -250 274 l0 57 -607 1 c-335 1
-772 5 -972 8 -333 5 -363 7 -349 22 12 12 55 19 170 27 343 27 792 52 1123
62 192 6 351 12 352 14 7 7 -724 17 -1161 15 l-480 -1 -19 26 c-11 15 -18 28
-16 30 13 12 495 29 949 34 309 3 512 9 480 13 -133 18 -393 29 -925 39 -500
10 -572 13 -587 27 -10 9 -18 19 -18 22 0 3 57 8 128 10 752 23 780 23 1042
11z m-1226 -227 l46 -63 -21 -35 -21 -35 -79 0 c-43 0 -79 2 -79 4 0 2 18 37
40 77 23 41 46 84 52 97 6 12 12 21 14 20 1 -2 23 -31 48 -65z m4927 -29 c27
-48 49 -91 49 -96 0 -4 -31 -8 -69 -8 l-68 0 -27 41 c-27 40 -27 41 -9 63 11
11 30 38 43 58 14 20 26 35 28 33 3 -2 26 -43 53 -91z m-2991 -244 c21 0 28
-8 43 -49 42 -118 129 -210 253 -269 54 -24 70 -27 174 -27 135 0 212 22 297
83 81 59 162 178 163 240 l0 22 938 1 c515 0 1017 0 1116 0 l178 1 50 -49 49
-48 -28 -6 c-15 -4 -523 -7 -1129 -8 l-1100 -1 -30 -62 c-35 -73 -128 -171
-201 -211 -74 -39 -191 -67 -288 -67 -222 0 -406 103 -497 277 l-33 63 -1115
1 c-613 1 -1126 1 -1140 0 -22 -1 -18 5 35 53 l60 55 200 3 c110 2 600 2 1090
0 490 -1 901 -3 915 -2z"/>
<path d="M2033 5831 c27 -376 200 -670 497 -844 l80 -46 0 52 c0 112 -21 278
-45 363 -63 214 -193 374 -411 504 -44 26 -91 51 -104 55 l-23 7 6 -91z"/>
<path d="M8085 5860 c-260 -159 -392 -346 -434 -620 -11 -68 -21 -290 -14
-290 11 0 74 37 132 77 224 155 345 336 411 613 27 116 38 280 19 280 -8 0
-59 -27 -114 -60z"/>
<path d="M2060 4957 c0 -7 26 -53 59 -102 100 -154 226 -258 366 -305 102 -34
235 -67 235 -59 0 17 53 69 71 69 17 0 12 11 -32 76 -133 193 -305 292 -559
323 -111 14 -140 14 -140 -2z"/>
<path d="M8026 4959 c-239 -31 -415 -135 -536 -317 -47 -70 -50 -77 -32 -83
11 -4 30 -22 44 -39 l25 -32 84 21 c185 44 299 102 395 203 74 78 103 115 148
196 l35 62 -47 -1 c-26 -1 -78 -6 -116 -10z"/>
<path d="M2372 4450 c13 -38 221 -217 231 -199 24 43 66 134 63 136 -4 4 -216
58 -264 67 -20 3 -32 2 -30 -4z"/>
<path d="M7720 4427 c-74 -17 -137 -32 -139 -34 -8 -6 54 -132 65 -133 12 0
92 57 137 99 37 34 91 101 80 100 -4 0 -69 -15 -143 -32z"/>
<path d="M3569 4135 c-171 -27 -162 -33 36 -28 167 5 443 -6 545 -22 81 -12
-71 26 -178 45 -131 23 -275 25 -403 5z"/>
<path d="M6285 4136 c-107 -17 -238 -47 -232 -53 3 -2 41 1 84 8 51 9 184 13
380 14 309 0 325 3 147 30 -120 18 -267 18 -379 1z"/>
</g>
</svg>
